# Blender v3.1.2 OBJ File: 'Weed Leaf.blend'
# www.blender.org
mtllib Weed Leaf.mtl
o Plane
v -1.000000 0.000000 1.000000
v 1.000000 0.000000 1.000000
v -1.000000 0.000000 -1.000000
v 1.000000 0.000000 -1.000000
vt 0.000000 0.000000
vt 1.000000 0.000000
vt 1.000000 1.000000
vt 0.000000 1.000000
vn 0.0000 1.0000 0.0000
usemtl Weed_Leaf
s off
f 1/1/1 2/2/1 4/3/1 3/4/1
o Plane.001
v -3.210795 -0.001260 1.000000
v -1.210795 -0.001260 1.000000
v -3.210795 0.000000 -1.000000
v -1.210795 0.000000 -1.000000
v -2.210795 0.027948 1.000000
v -2.210795 0.086162 -1.000000
v -3.210795 0.001630 0.000000
v -1.710795 0.009294 1.000000
v -1.210795 0.001630 0.000000
v -2.710795 0.042207 -1.000000
v -2.710795 0.009294 1.000000
v -1.710795 0.042207 -1.000000
v -2.210795 0.158179 0.000000
v -2.710795 0.084655 0.000000
v -1.710795 0.084655 0.000000
vt 0.750000 0.500000
vt 1.000000 0.500000
vt 1.000000 1.000000
vt 0.750000 1.000000
vt 0.250000 0.500000
vt 0.500000 0.500000
vt 0.500000 1.000000
vt 0.250000 1.000000
vt 0.000000 0.500000
vt 0.000000 1.000000
vt 0.000000 0.000000
vt 0.250000 0.000000
vt 0.500000 0.000000
vt 0.750000 0.000000
vt 1.000000 0.000000
vn 0.1065 0.9942 0.0156
vn 0.1087 0.9940 0.0085
vn 0.1242 0.9920 -0.0219
vn 0.1204 0.9919 -0.0393
vn -0.1065 0.9942 0.0156
vn -0.0000 0.9997 0.0225
vn 0.0000 0.9984 -0.0571
vn -0.1204 0.9919 -0.0393
vn -0.1087 0.9940 0.0085
vn -0.1242 0.9920 -0.0219
vn -0.0931 0.9949 0.0389
vn -0.0923 0.9932 0.0704
vn 0.0000 0.9948 0.1023
vn 0.0923 0.9932 0.0704
vn 0.0931 0.9949 0.0389
usemtl Weed_Leaf
s 1
f 19/5/2 13/6/3 8/7/4 16/8/5
f 18/9/6 17/10/7 10/11/8 14/12/9
f 11/13/10 18/9/6 14/12/9 7/14/11
f 5/15/12 15/16/13 18/9/6 11/13/10
f 15/16/13 9/17/14 17/10/7 18/9/6
f 17/10/7 19/5/2 16/8/5 10/11/8
f 9/17/14 12/18/15 19/5/2 17/10/7
f 12/18/15 6/19/16 13/6/3 19/5/2
